<svg width="22" height="22" viewBox="0 0 22 22" fill="none" xmlns="http://www.w3.org/2000/svg">
<g clip-path="url(#clip0_103_482)">
<path d="M17.04 12.0799C15.33 14.7999 13.63 17.5199 11.95 20.2599C11.46 21.0399 12.36 21.4399 13.04 21.4399C13.92 21.4399 15.18 21.1399 15.7 20.3399C17.46 17.6199 19.2 14.8999 20.93 12.1699C21.44 11.3599 20.48 10.9399 19.8 10.9399C18.9 10.9399 17.56 11.2499 17.04 12.0799Z" fill="black"/>
<path d="M12.1699 8.06991C9.44995 9.28991 6.73995 10.5199 4.02995 11.7599C3.52995 11.9899 2.35995 12.6899 2.96995 13.3599C3.57995 14.0299 4.95995 13.6799 5.60995 13.3999C8.34995 12.1999 11.0799 10.9899 13.8199 9.76991C14.2099 9.59991 14.6899 9.32991 14.9299 8.95991C15.0899 8.70991 15.1699 8.33991 14.9299 8.10991C14.2699 7.47991 12.9099 7.73991 12.1899 8.06991H12.1699Z" fill="black"/>
<path d="M8.73994 0.0199249C6.58994 0.239925 4.42994 0.459925 2.27994 0.689925C1.76994 0.749925 1.19994 0.929925 0.769937 1.19993C0.509936 1.35993 0.0599365 1.69993 0.00993633 2.03993C-0.110064 2.93993 1.15994 2.94992 1.73994 2.89992C3.88994 2.70992 6.03994 2.49993 8.18994 2.27993C8.70994 2.22993 9.29994 2.02992 9.73994 1.74992C9.99994 1.58992 10.4699 1.23993 10.5199 0.879925C10.6399 -0.0400746 9.33994 -0.0600755 8.74994 -7.55787e-05L8.73994 0.0199249Z" fill="black"/>
</g>
<defs>
<clipPath id="clip0_103_482">
<rect width="21.08" height="21.44" fill="white" transform="matrix(-1 0 0 -1 21.08 21.4399)"/>
</clipPath>
</defs>
</svg>
