<svg width="26" height="36" viewBox="0 0 26 36" fill="none" xmlns="http://www.w3.org/2000/svg">
<path d="M0.659518 4.74439C0.685091 4.19968 0.761417 3.64721 0.823775 3.10111C0.886131 2.55501 0.923874 1.93299 1.16433 1.44924C1.31351 1.14549 1.52625 0.961411 1.7695 0.927451C1.81676 0.921295 1.86177 0.926419 1.90392 0.937964C2.19882 0.931728 2.43993 1.25241 2.45418 1.67647C2.46538 2.0199 2.33393 2.34633 2.1383 2.54824C2.07325 2.98793 2.03103 3.4326 1.98406 3.86918C1.98343 3.86434 1.98281 3.85949 1.98281 3.85949C1.9812 3.8756 1.97895 3.88688 1.98083 3.9014C1.9786 3.91267 1.97924 3.9175 1.977 3.92878C1.97825 3.93846 1.97601 3.94973 1.97315 3.95616L1.97252 3.95132C1.97315 3.95616 1.97377 3.961 1.97153 3.97227C1.97153 3.97227 1.97216 3.97711 1.96866 3.9787C1.93064 4.3702 1.9031 4.75692 1.89076 5.14696C1.88792 5.55319 1.89493 5.94979 1.92063 6.34812C1.93684 6.53039 1.96289 6.70304 1.98957 6.88053C2.0764 7.32277 2.18416 7.75547 2.30115 8.17372C2.50998 8.87303 2.71596 9.57877 2.95844 10.2525C3.09073 10.6176 3.21093 11.0037 3.36068 11.3609C3.5063 11.7148 3.65606 12.072 3.80455 12.4195C3.98598 12.793 4.16804 13.1714 4.35296 13.5433C4.44399 13.7324 4.55533 13.9072 4.65683 14.0916C4.74884 14.2599 4.84496 14.4313 4.9376 14.6044C5.25578 15.1206 5.57211 15.6223 5.90936 16.1145C6.25547 16.618 6.61303 17.0957 6.97409 17.5719C7.22666 17.8669 7.48273 18.1602 7.73531 18.4552C7.86571 18.6059 8.00821 18.7358 8.14434 18.8736C8.28047 19.0115 8.4131 19.1509 8.54923 19.2888C8.93078 19.6378 9.30409 19.9802 9.69996 20.297C10.1177 20.6398 10.5421 20.9487 10.9741 21.2592C11.4987 21.5994 12.0289 21.9267 12.5615 22.2427C13.0617 22.5376 13.5864 22.765 14.1077 22.9939C14.4693 23.1315 14.8308 23.2692 15.1998 23.3778C15.5769 23.493 15.9544 23.5824 16.3354 23.6702C16.6863 23.7256 17.0373 23.7809 17.3885 23.8105C17.7322 23.8384 18.074 23.8518 18.4228 23.862C19.2818 23.8448 20.1462 23.8404 21.0111 23.6975C20.9819 23.7005 20.9562 23.702 20.9277 23.7099C21.064 23.6785 21.1998 23.6422 21.335 23.6012C21.5637 23.5123 21.7912 23.4138 22.0203 23.2991C22.3548 23.1416 22.6895 23.4145 22.749 23.8743C22.8105 24.3486 22.5801 24.8534 22.2422 25.0125C21.6885 25.275 21.1361 25.4909 20.5706 25.5486C19.8879 25.6137 19.2118 25.645 18.5326 25.6521C17.8797 25.6626 17.2259 25.6376 16.5849 25.5401C16.2118 25.4846 15.8473 25.4098 15.4821 25.3302C15.1468 25.2523 14.8188 25.1455 14.4885 25.05C14.369 25.0121 14.2518 24.9631 14.1317 24.9204C13.9488 24.85 13.7637 24.7908 13.5831 24.7091C13.297 24.5832 13.0086 24.4685 12.7276 24.3249C12.1126 24.0003 11.5005 23.6693 10.9038 23.2852C9.7048 22.504 8.54183 21.6295 7.48096 20.5444C6.95701 20.0092 6.43181 19.4643 5.95905 18.8391C5.72679 18.5298 5.48469 18.2301 5.26164 17.9063C5.0386 17.5825 4.80158 17.2651 4.59125 16.9252C4.36193 16.553 4.11644 16.1985 3.89983 15.8103C3.69746 15.4463 3.49858 15.0807 3.29621 14.7168C3.20071 14.5501 3.12014 14.3562 3.03449 14.1799C2.9346 13.9794 2.83821 13.7773 2.7377 13.572C2.64792 13.3925 2.57783 13.1938 2.4979 13.0047C2.40249 12.7816 2.30995 12.5521 2.21453 12.3291C2.08027 12.0058 1.97205 11.6553 1.85113 11.3209C1.74631 11.0252 1.65134 10.72 1.54939 10.4179C1.25401 9.50686 0.96371 8.57813 0.777511 7.59685C0.746987 7.44674 0.72345 7.29345 0.703396 7.13857C0.615476 6.37391 0.616414 5.55338 0.659518 4.74439Z" fill="black"/>
<path d="M1.96616 3.95935L1.96679 3.96419C1.96679 3.96419 1.96678 3.96418 1.96741 3.96902C1.96678 3.96418 1.96679 3.96419 1.96616 3.95935Z" fill="black"/>
<path d="M1.9684 3.94807L1.96903 3.95291C1.96903 3.95291 1.96903 3.95291 1.9684 3.94807Z" fill="black"/>
<path d="M1.97611 3.8933C1.97834 3.88203 1.97708 3.87236 1.97994 3.86593C1.9777 3.8772 1.97485 3.88362 1.97611 3.8933Z" fill="black"/>
<path d="M14.8317 34.0377C14.8491 34.0297 14.8631 34.0234 14.8764 34.0122C15.7749 33.5003 16.6383 32.8608 17.5113 32.2375C17.9582 31.9211 18.4083 31.6288 18.8599 31.3205C19.3389 30.9946 19.8125 30.6558 20.289 30.3105C20.5395 30.1041 20.79 29.8977 21.037 29.6929C21.157 29.5921 21.2676 29.4751 21.3822 29.3613C21.501 29.2508 21.6156 29.1371 21.7344 29.0266C21.9491 28.8006 22.1603 28.5762 22.3743 28.3454C22.5694 28.1387 22.7536 27.9061 22.9426 27.6816C23.1816 27.3574 23.4218 27.0429 23.643 26.6961C23.7466 26.5258 23.8427 26.354 23.9374 26.1724C23.9775 26.0824 24.0205 25.9859 24.0599 25.891C24.0787 25.8363 24.0975 25.7816 24.1163 25.7269C24.1316 25.6738 24.1463 25.6159 24.1575 25.5595C24.1687 25.5032 24.1764 25.4484 24.1834 25.3888C24.1941 25.2712 24.2012 25.1552 24.2049 25.0408C24.2026 24.8521 24.1975 24.6699 24.1848 24.4861C24.1655 24.2796 24.1392 24.0763 24.1052 23.8714C24.1065 23.8811 24.1077 23.8908 24.1118 23.894C24.069 23.6777 24.0193 23.4646 23.9625 23.2547C23.9054 23.0706 23.8379 22.8912 23.7674 22.7183C23.6536 22.4677 23.5272 22.2332 23.3978 22.0051C23.3061 21.8675 23.2172 21.7235 23.1255 21.5859C23.0284 21.4354 22.9157 21.3073 22.81 21.1761L22.8106 21.1809C22.6767 21.0318 22.5387 20.8794 22.4013 20.7319C22.2211 20.5679 22.0479 20.4008 21.8627 20.2546C21.6157 20.0596 21.3699 19.8743 21.1165 19.6874C20.708 19.3866 20.2971 19.0971 19.8835 18.814C19.2819 18.4218 18.6731 18.0586 18.0578 17.7033C17.415 17.335 16.7825 16.9313 16.1209 16.6177C16.0477 16.5947 15.9773 16.5652 15.9041 16.5422C15.8965 16.5406 15.8924 16.5373 15.8854 16.5405C15.5784 16.5676 15.3227 16.2485 15.3094 15.8035C15.2946 15.3181 15.5697 14.8443 15.9129 14.7545C16.0953 14.7073 16.2756 14.7584 16.442 14.8158C16.6125 14.8765 16.7842 14.9469 16.9468 15.0317C17.2449 15.1932 17.5408 15.3659 17.836 15.5338C18.4319 15.8824 19.0295 16.215 19.6225 16.5701C20.212 16.9268 20.7879 17.3204 21.358 17.727C21.6519 17.9416 21.9458 18.1562 22.2398 18.3708C22.5337 18.5854 22.8092 18.8289 23.0824 19.0837C23.3509 19.3304 23.6016 19.6108 23.8374 19.9186C24.0807 20.228 24.3079 20.555 24.5109 20.9238C24.6664 21.2117 24.8109 21.4996 24.9404 21.8147C25.1492 22.3142 25.2787 22.8856 25.3732 23.473C25.4671 24.0555 25.4956 24.7038 25.4363 25.3305C25.3815 25.9347 25.1995 26.4994 24.9501 27.0282C24.6136 27.7402 24.1719 28.3259 23.7337 28.91C23.5952 29.0961 23.4425 29.258 23.2985 29.4312C23.1801 29.5723 23.0609 29.7086 22.9377 29.8417C22.6223 30.175 22.3098 30.502 21.9843 30.8143C21.8494 30.9424 21.7163 31.0851 21.5794 31.1987C21.3893 31.3571 21.1985 31.5107 21.0048 31.6707C20.5003 32.0851 19.9772 32.4413 19.4547 32.8024C18.9421 33.1539 18.4254 33.5021 17.9127 33.8536C17.4134 34.1939 16.9214 34.5616 16.4268 34.91C16.1929 35.073 15.9536 35.223 15.7171 35.3667C15.5016 35.5007 15.2839 35.6461 15.064 35.7463C14.7295 35.9038 14.3954 35.6358 14.3353 35.1711C14.2605 34.708 14.4937 34.1968 14.8317 34.0377Z" fill="black"/>
<path d="M22.8131 21.2003L22.809 21.197C22.8125 21.1954 22.8125 21.1954 22.8131 21.2003Z" fill="black"/>
</svg>
