<svg width="108" height="97" viewBox="0 0 108 97" fill="none" xmlns="http://www.w3.org/2000/svg">
<g clip-path="url(#clip0_103_601)">
<path d="M59.4795 0.27498C48.6318 -1.32502 38.0443 4.31665 29.179 12.3583C20.4439 20.2916 12.8548 30.5333 6.98182 42.3166C4.00195 48.3 1.37521 54.8666 0.396374 62.0166C-0.514313 68.6333 0.0494453 75.75 2.73814 81.525C5.42683 87.3 9.65192 90.675 14.0938 92.95C19.3225 95.6333 24.9354 96.825 30.5172 96.9833C41.5383 97.2916 52.6648 93.9833 63.0169 89.0833C73.369 84.1833 82.6865 77.5083 91.3225 69C99.2647 61.1833 107.201 50.7666 107.932 36.775C108.266 30.3666 106.99 23.9083 103.719 19.1C100.448 14.2916 96.0123 11.75 91.5394 10.025C80.4872 5.76665 68.5678 5.97498 57.2988 8.34998C46.0298 10.725 34.1599 15.8 22.9839 21.2166C20.2766 22.525 17.5817 23.875 14.8868 25.2166C14.5461 25.3833 13.9328 25.95 14.2487 26.5083C14.5647 27.0666 15.4568 26.725 15.8285 26.5416C26.416 21.2916 37.0469 16.05 48.0433 12.5583C59.0396 9.06665 70.1227 7.44165 81.1811 9.41665C90.1021 11.0083 101.439 14.775 104.648 27.725C106.117 33.65 105.689 40.1916 104.047 45.9666C102.313 52.075 99.1346 57.2916 95.5972 61.6916C92.0598 66.0916 87.8223 70.1666 83.6096 73.7416C79.3969 77.3166 74.8125 80.6333 70.1599 83.4166C60.7929 89.025 50.7629 92.9333 40.5657 94.5166C35.1511 95.3583 29.6375 95.4583 24.2477 94.2833C19.3535 93.2166 14.3912 91.2 10.2405 87.4416C6.20742 83.8 3.48775 78.4166 2.65141 71.9583C1.81506 65.5 2.88682 58.4666 4.92503 52.3333C7.0066 46.0583 9.99885 40.2666 13.1832 34.9166C16.3675 29.5666 19.8801 24.725 23.7273 20.3166C31.3597 11.5583 40.5471 3.90831 50.6514 2.08331C53.1171 1.63331 55.6261 1.55831 58.098 1.92498C58.637 1.99998 59.2874 1.88331 59.6963 1.34998C59.9999 0.94998 59.9937 0.34998 59.4795 0.27498Z" fill="black"/>
<g clip-path="url(#clip1_103_601)">
<path d="M45.0901 58.3199C48.0601 48.6399 51.0001 38.9499 54.0101 29.2799L49.8601 29.7999C49.7001 36.7999 49.6101 43.8099 49.4901 50.8099C49.3701 57.8099 49.1301 64.6799 49.1801 71.6199C49.1801 72.8799 53.2401 72.0899 53.2901 70.8099C53.5701 63.8899 53.5601 56.9599 53.6801 50.0399C53.8001 43.1199 53.9401 36.1999 54.0201 29.2799C54.0401 27.4999 50.2501 28.5399 49.8701 29.7999C46.9601 39.4899 43.9801 49.1499 41.0301 58.8299C40.6001 60.2399 44.6701 59.6899 45.0901 58.3199Z" fill="black"/>
</g>
</g>
<defs>
<clipPath id="clip0_103_601">
<rect width="108" height="97" fill="white"/>
</clipPath>
<clipPath id="clip1_103_601">
<rect width="13.01" height="46.26" fill="white" transform="translate(41 26)"/>
</clipPath>
</defs>
</svg>
