<svg width="56" height="36" viewBox="0 0 56 36" fill="none" xmlns="http://www.w3.org/2000/svg">
<g clip-path="url(#clip0_103_605)">
<path d="M16.0601 2.11999C16.1101 4.68999 16.1101 7.25999 16.0601 9.82999C16.0601 10.17 16.1301 10.36 16.4501 10.52C16.8001 10.7 17.3401 10.71 17.7201 10.65C18.2201 10.58 18.7501 10.44 19.1801 10.15C19.4401 9.97999 19.9101 9.67999 19.9101 9.32999C19.9701 6.57999 19.9701 3.81999 19.9101 1.06999C19.9101 0.76999 19.3601 0.57999 19.1601 0.53999C18.7101 0.43999 18.1501 0.49999 17.7201 0.61999C17.0101 0.82999 16.0301 1.23999 16.0501 2.09999L16.0601 2.11999Z" fill="black"/>
<path d="M27.4 1.34006L27.29 8.90006C27.29 9.24006 27.36 9.43006 27.68 9.59006C28.03 9.77006 28.57 9.78006 28.95 9.72006C29.45 9.65006 29.98 9.51006 30.41 9.22006C30.66 9.05006 31.14 8.75006 31.14 8.40006L31.25 0.840059C31.25 0.500059 31.18 0.310059 30.86 0.150059C30.51 -0.0299408 29.97 -0.0399408 29.59 0.0200592C29.09 0.0900592 28.56 0.230059 28.13 0.520059C27.88 0.690059 27.4 0.990059 27.4 1.34006Z" fill="black"/>
<path d="M0.180109 24.6899C5.46011 30.7399 13.1101 34.1099 21.0201 34.8699C28.9301 35.6299 37.7001 33.2899 44.7601 29.0099C48.8101 26.5499 52.4001 23.4399 55.5301 19.8899C56.2101 19.1099 54.9501 18.6699 54.3801 18.6499C53.3501 18.5999 52.2701 19.0299 51.5901 19.7999C46.8801 25.1599 40.7101 29.4799 33.8101 31.4599C26.9101 33.4399 19.9501 32.9099 13.5901 30.0799C9.92011 28.4499 6.67011 26.0899 4.02011 23.0699C3.08011 21.9999 -0.889891 23.4799 0.170109 24.6899H0.180109Z" fill="black"/>
</g>
<defs>
<clipPath id="clip0_103_605">
<rect width="55.73" height="35.02" fill="white"/>
</clipPath>
</defs>
</svg>
